<?xml version="1.0" encoding="UTF-8"?>
<svg id="Layer_1" data-name="Layer 1" xmlns="http://www.w3.org/2000/svg" viewBox="0 0 300 300">
  <defs>
    <style>
      .cls-1 {
        fill: #b76749;
      }

      .cls-2 {
        fill: #22382c;
      }
    </style>
  </defs>
  <path class="cls-2" d="M221.47,135.8h-33.8c.62-.8.57-1.95-.16-2.68l-5.8-5.81c-.79-.8-2.08-.8-2.87,0-.8.79-.8,2.08,0,2.87l5.61,5.61h-8.33c.62-.8.57-1.95-.16-2.68l-4.18-4.19c-.8-.79-2.08-.79-2.87,0-.79.79-.79,2.08,0,2.87l3.99,3.99h-8.3c.61-.8.56-1.93-.17-2.66l-12.75-12.74c-.79-.79-2.08-.79-2.87,0-.8.79-.8,2.08,0,2.87l12.53,12.53h-74.71v-22.73h-5.7v22.73h-2.38c-3.14,0-5.71,2.56-5.71,5.7v6.51c0,3.15,2.57,5.7,5.71,5.7h.2v19.54c0,12.01,6.78,22.47,16.72,27.72-.01.06-.01.12-.01.17v11.15c0,3.14,2.56,5.7,5.71,5.7h7.61c3.15,0,5.7-2.57,5.7-5.7v-7.69h70.67v7.69c0,3.14,2.56,5.7,5.7,5.7h7.61c3.15,0,5.7-2.57,5.7-5.7v-11.12c10.15-5.2,17.1-15.76,17.1-27.93v-19.54h.2c3.14,0,5.7-2.56,5.7-5.7v-6.51c0-3.15-2.57-5.7-5.7-5.7M221.47,148.02H78.54v-6.51h142.93v6.51Z"/>
  <path class="cls-2" d="M125.68,89.69c-2.11,2.92-3.25,6.42-3.25,10.09,0,4.61,1.79,8.95,5.07,12.23.75.75,1.73,1.13,2.71,1.13s1.97-.38,2.73-1.13l19.01-19.02c1.5-1.5,1.5-3.94,0-5.45-3.27-3.27-7.6-5.06-12.22-5.06-3.73,0-7.27,1.17-10.23,3.36-2.55-2.45-5.97-3.86-9.58-3.86-.57,0-1.12.05-1.67.11v5.47c.54-.11,1.1-.17,1.67-.17,2.17,0,4.21.84,5.75,2.3"/>
  <path class="cls-2" d="M137.84,109.44c-.79.79-.79,2.08,0,2.87l5.37,5.37c.4.4.92.6,1.44.6s1.04-.2,1.44-.6c.79-.79.79-2.08,0-2.87l-5.37-5.37c-.79-.79-2.08-.79-2.87,0"/>
  <path class="cls-2" d="M153.41,113.46c-.79.79-.79,2.08,0,2.87l10.4,10.4c.4.4.92.59,1.44.59s1.04-.2,1.44-.59c.79-.79.79-2.08,0-2.87l-10.4-10.4c-.8-.79-2.08-.79-2.87,0"/>
  <path class="cls-2" d="M149.59,111.67c.52,0,1.04-.2,1.44-.59.79-.79.79-2.08,0-2.87l-4.54-4.54c-.79-.79-2.08-.79-2.87,0-.8.8-.8,2.08,0,2.87l4.53,4.54c.4.4.92.59,1.44.59"/>
  <path class="cls-2" d="M172.68,124.05c.4.4.92.59,1.44.59s1.04-.2,1.43-.59c.8-.79.8-2.08,0-2.87l-9.05-9.05c-.79-.79-2.08-.79-2.87,0-.79.79-.79,2.08,0,2.87l9.05,9.05Z"/>
  <path class="cls-2" d="M149.39,97.89c-.79.79-.79,2.08,0,2.87l8.04,8.04c.4.4.92.59,1.44.59s1.04-.2,1.44-.59c.79-.79.79-2.08,0-2.87l-8.04-8.04c-.8-.79-2.08-.79-2.87,0"/>
  <path class="cls-1" d="M121.2,81.98h-34.13c-1.69,0-3.23.69-4.34,1.8h0s0,0,0,0c-1.11,1.11-1.81,2.65-1.81,4.34v34.13h3.67c3.39,0,6.14-2.76,6.14-6.14v-24.32h.01s0-.01,0-.01h24.32c3.39,0,6.14-2.75,6.14-6.14v-3.66s0-.01,0-.01Z"/>
</svg>