<?xml version="1.0" encoding="UTF-8"?>
<svg id="Layer_1" data-name="Layer 1" xmlns="http://www.w3.org/2000/svg" viewBox="0 0 300 300">
  <defs>
    <style>
      .cls-1 {
        fill: #9fd0c8;
      }

      .cls-2 {
        fill: #e5ddd2;
      }
    </style>
  </defs>
  <path class="cls-2" d="M216.44,136.19h0l-6.58-.79v-34.78c0-5.91-3.81-11-9.48-12.66l-.26-.08-.08-.26c-.23-.72-.44-1.35-.67-1.92-1.52-3.9-5.42-6.52-9.71-6.52h-24.43c-4.28,0-8.18,2.62-9.7,6.52-.18.45-.34.89-.49,1.33l-.12.34-.38.04h-9.44l-.12-.35c-.15-.44-.32-.89-.48-1.34-1.53-3.92-5.43-6.54-9.71-6.54h-24.44c-4.28,0-8.18,2.62-9.7,6.52-.24.63-.46,1.28-.68,1.93l-.08.26-.26.08c-5.66,1.66-9.47,6.75-9.47,12.66v20.4l-5.4-.64c-.08,0-.14-.02-.21-.04-.14-.03-.2-.04-.25-.02l-.14.02c-1.32,0-2.57.52-3.52,1.46-.94.94-1.45,2.19-1.45,3.51v12.03c0,2.38,1.69,4.44,4.02,4.88l6.96,1.37v64.03c0,7.28,5.92,13.2,13.2,13.2h93.29c7.29,0,13.21-5.92,13.21-13.2v-40.08l5.05,1.06c.31.06.62.09.95.09,1.33,0,2.58-.52,3.52-1.46.94-.93,1.46-2.18,1.46-3.51v-22.58c0-2.53-1.89-4.66-4.39-4.95M94.62,100.61c0-2.59,1.13-5.02,3.11-6.69l.97-.81-.13,1.26c-.12,1.15-.18,2.32-.18,3.5,0,4.25.76,8.34,2.26,12.18,1.52,3.9,5.42,6.52,9.7,6.52h24.44c4.29,0,8.18-2.62,9.7-6.52,1.5-3.83,2.26-7.93,2.26-12.18,0-1.78-.15-3.6-.44-5.4l-.09-.59h7.57l-.1.59c-.29,1.79-.43,3.61-.43,5.4,0,4.23.76,8.33,2.27,12.18,1.52,3.9,5.42,6.52,9.7,6.52h24.43c4.29,0,8.18-2.62,9.71-6.52,1.5-3.85,2.27-7.95,2.27-12.18,0-1.11-.07-2.29-.19-3.5l-.14-1.26.97.82c1.98,1.67,3.12,4.11,3.12,6.69v34.26l-110.77-13.32v-20.94ZM190.84,159.02l.02-.11-107.22-21.15v-13.03s132.72,15.96,132.72,15.96l.04,23.68-25.56-5.34Z"/>
  <path class="cls-1" d="M132.68,208.61h-30.28v-30.27c0-4.21-3.43-7.64-7.64-7.64h-4.57v42.48c0,4.21,3.43,7.64,7.64,7.64h42.5v-4.57c0-4.21-3.43-7.64-7.64-7.64"/>
</svg>