<?xml version="1.0" encoding="UTF-8"?>
<svg id="Layer_1" data-name="Layer 1" xmlns="http://www.w3.org/2000/svg" viewBox="0 0 300 300">
  <defs>
    <style>
      .cls-1 {
        fill: #b76749;
      }

      .cls-2 {
        fill: #22382c;
      }
    </style>
  </defs>
  <path class="cls-2" d="M188.91,110.4l-.44-.27v-24.24h0v-.93h0v-3.4c0-6.37-5.17-11.54-11.54-11.54h-53.84c-6.37,0-11.54,5.17-11.54,11.54v3.4h0v.93h0v9.5h-.39l-.14.14v5.57l.14.14h0s.38.01.38.01v5.97l-.44.27c-.06.05-.05.39-.05.62v10c0,.19,0,.36.07.41l.42.17v2.73l-.44.28c-.06.05-.05.39-.05.62v10c0,.19,0,.36.07.41l.42.17v81.08h0v.93h0v3.54c0,6.38,5.17,11.54,11.54,11.54h53.84c6.37,0,11.54-5.17,11.54-11.54v-3.54h0v-.93h0v-85.8l.42-.16c.07-.05.07-.22.07-.41v-16.58c0-.23,0-.57-.05-.62M185.57,80.85v138.13c0,3.72-3.99,7.79-7.62,7.79h-55.85c-3.63,0-7.62-4.08-7.62-7.79V80.85c0-3.72,3.99-7.79,7.62-7.79h55.85c3.63,0,7.62,4.08,7.62,7.79"/>
  <path class="cls-2" d="M158.46,74.77h-15.06c-1.76,0-3.2,1.44-3.2,3.2s1.44,3.2,3.2,3.2h15.06c1.76,0,3.2-1.43,3.2-3.2s-1.44-3.2-3.2-3.2"/>
  <path class="cls-1" d="M156.33,217.13h-31.88v-31.86c0-4.44-3.61-8.04-8.04-8.04h-4.81v44.71c0,4.44,3.61,8.05,8.04,8.05h44.73v-4.81c0-4.44-3.61-8.04-8.04-8.04"/>
</svg>