<?xml version="1.0" encoding="UTF-8"?>
<svg id="Layer_1" data-name="Layer 1" xmlns="http://www.w3.org/2000/svg" viewBox="0 0 300 300">
  <defs>
    <style>
      .cls-1 {
        fill: #b76749;
      }

      .cls-2 {
        fill: #22382c;
      }
    </style>
  </defs>
  <path class="cls-2" d="M274.64,159.29c-1.19-2.09-3.23-5.16-6.48-8.11-2.38-2.15-7.45-6.09-24.32-9.73-4.32-.93-9.92-1.96-16.58-2.69-3.87-.43-7.5-2.14-10.28-4.86-6.93-6.8-17.3-15.19-31.51-21.64-4.66-2.12-23.93-10.48-50.27-9.73-9.26.26-25.94.91-43.78,9.73-9.32,4.61-16.8,11.94-25.47,17.54-5.34,3.45-11.31,5.36-17.55,6.39-5.98.98-13.7.1-18.81,3.75-5.7,4.07-9.07,12.63-8.57,19.56.34,4.69,5.55,2.69,5.55,6.27v12.96c0,3.59,2.92,6.49,6.5,6.49l19.28.13c-.93-2.57-1.46-5.33-1.46-8.22,0-13.41,10.91-24.32,24.32-24.32s24.32,10.91,24.32,24.32c0,3-.57,5.87-1.57,8.53l100.68.67c-1.16-2.84-1.82-5.94-1.82-9.19,0-13.41,10.91-24.32,24.32-24.32s24.32,10.91,24.32,24.32c0,3.36-.69,6.57-1.93,9.49l27.82.18c4.5.03,8.16-3.61,8.16-8.11v-11.3c0-4.48-.39-8.11-4.87-8.11M91.65,140.77h-11.19c-.74,0-1.34-.6-1.34-1.34s.6-1.34,1.34-1.34h11.19c.74,0,1.34.6,1.34,1.34s-.6,1.34-1.34,1.34M135.94,134.13h-56.21c-4.54-.78,16.54-25.11,54.86-24.21.58.02,1.05.48,1.08,1.05l1.37,21.97c.04.64-.47,1.18-1.11,1.18M157.66,140.77h-11.18c-.74,0-1.34-.6-1.34-1.34s.6-1.34,1.34-1.34h11.18c.74,0,1.34.6,1.34,1.34s-.6,1.34-1.34,1.34M205.49,135.61l-59.67-1.45c-.52-.02-.95-.42-.98-.94l-1.38-22.17c-.04-.58.44-1.09,1.02-1.08,37.73.68,57.19,18.51,61.92,24.15.5.59-.13,1.5-.91,1.49M271.43,157.89c-.2.6-1.71,2.1-2.06,2.32-.69.44-1.5.36-2.27.3-.86-.07-1.72-.1-2.57-.16-1.71-.12-3.44-.31-5.05-.94-.99-.39-1.88-1-2.76-1.59-2.03-1.38-3.87-3.02-5.8-4.54-1.37-1.09-2.86-2.05-4.09-3.3-.37-.37-.94-.72-.98-1.25-.02-.31.17-.66.44-.81.64-.37,11.74,1.54,13.55,2.14,1.35.44,2.71.88,4.01,1.44,1.04.44,1.97.94,3.03,1.51.39.21,5.23,2.84,4.54,4.89"/>
  <path class="cls-2" d="M75.19,156.05c-11.64,0-21.08,9.44-21.08,21.08,0,2.93.6,5.71,1.68,8.24,3.21,7.55,10.69,12.83,19.4,12.83s16.01-5.18,19.28-12.58c1.15-2.6,1.8-5.48,1.8-8.5,0-11.65-9.44-21.08-21.08-21.08M89.1,183.26c-2.44,5.51-7.9,9.08-13.91,9.08s-11.61-3.63-14-9.26c-.8-1.88-1.21-3.88-1.21-5.95,0-8.39,6.82-15.21,15.21-15.21s15.21,6.82,15.21,15.21c0,2.11-.44,4.18-1.3,6.13"/>
  <path class="cls-2" d="M221.13,156.05c-11.64,0-21.08,9.44-21.08,21.08,0,3.31.78,6.43,2.14,9.22,3.42,7.01,10.6,11.86,18.93,11.86s15.35-4.73,18.81-11.61c1.44-2.85,2.26-6.06,2.26-9.47,0-11.64-9.44-21.08-21.08-21.08M234.7,183.95c-2.61,5.17-7.81,8.39-13.57,8.39s-11.08-3.28-13.66-8.57c-1.03-2.11-1.55-4.35-1.55-6.64,0-8.39,6.82-15.21,15.21-15.21s15.21,6.82,15.21,15.21c0,2.38-.55,4.67-1.64,6.82"/>
  <path class="cls-1" d="M47.96,181.33c0-3.68-2.99-6.67-6.67-6.67h-5.87,4.36-8.11v-8.11h0v4.36-5.87c0-3.68-2.99-6.67-6.67-6.67h-3.99v20.29c0,1.84.75,3.51,1.96,4.72,1.21,1.21,2.88,1.96,4.72,1.96h20.29v-3.99Z"/>
</svg>