<?xml version="1.0" encoding="UTF-8"?>
<svg id="Layer_1" data-name="Layer 1" xmlns="http://www.w3.org/2000/svg" viewBox="0 0 300 300">
  <defs>
    <style>
      .cls-1 {
        fill: #b76749;
      }

      .cls-2 {
        fill: #22382c;
      }
    </style>
  </defs>
  <path class="cls-1" d="M146.97,142.03l44.38-44.38,4.77,4.78c4.4,4.4,4.4,11.56,0,15.96l-31.63,31.63,31.61,31.61c4.4,4.4,4.4,11.56,0,15.96l-4.77,4.77-44.37-44.37c-4.4-4.4-4.4-11.56,0-15.96"/>
  <path class="cls-2" d="M153.03,142.03l-44.38-44.38-4.77,4.78c-4.4,4.4-4.4,11.56,0,15.96l31.63,31.63-31.61,31.61c-4.4,4.4-4.4,11.56,0,15.96l4.77,4.77,44.37-44.37c4.4-4.4,4.4-11.56,0-15.96"/>
</svg>