<?xml version="1.0" encoding="UTF-8"?>
<svg id="Layer_1" data-name="Layer 1" xmlns="http://www.w3.org/2000/svg" viewBox="0 0 300 300">
  <defs>
    <style>
      .cls-1 {
        fill: #b76749;
      }

      .cls-2 {
        fill: #22382c;
      }
    </style>
  </defs>
  <path class="cls-2" d="M217.92,144.52l-50.82-50.82c-9.43-9.43-24.77-9.43-34.2,0l-50.82,50.82h8.13v70.65c0,2.7,2.19,4.88,4.88,4.88h39.73v-43.67c0-3.25,2.63-5.88,5.88-5.88h18.6c3.25,0,5.88,2.63,5.88,5.88v43.67h39.73c2.7,0,4.88-2.19,4.88-4.88v-70.65h8.13Z"/>
  <path class="cls-1" d="M112.68,113.92l31.62-31.62c1.57-1.56,3.63-2.35,5.69-2.35h.02c2.06,0,4.12.79,5.69,2.35l31.62,31.62v.02s-3.4,3.39-3.4,3.39c-3.14,3.14-8.24,3.14-11.37,0l-22.53-22.53h-.02s0,0,0,0l-22.53,22.53c-3.14,3.14-8.24,3.14-11.38,0l-3.4-3.4Z"/>
</svg>