<?xml version="1.0" encoding="UTF-8"?>
<svg id="Layer_1" data-name="Layer 1" xmlns="http://www.w3.org/2000/svg" viewBox="0 0 300 300">
  <defs>
    <style>
      .cls-1 {
        fill: #b76749;
      }

      .cls-2 {
        fill: #22382c;
      }
    </style>
  </defs>
  <path class="cls-2" d="M205.39,210.95h5.54v-.02h.02s0-6.21,0-6.21c0-3.88,3.16-7.05,7.05-7.05h4.21l-54.88-54.58c2.15-5.25,3.27-10.91,3.27-16.75,0-11.82-4.6-22.93-12.96-31.29-17.26-17.26-45.33-17.25-62.58,0-17.26,17.25-17.26,45.33,0,62.58,8.63,8.63,19.96,12.94,31.29,12.94,5.69,0,11.38-1.09,16.73-3.27l15.13,15.14c.42.42.99.68,1.58.73l10.81.9,1,10.93c.12,1.25,1.12,2.22,2.37,2.3l12.3.71.69,12.28c.04.62.3,1.21.74,1.65l10.64,10.24v-4.18c0-3.88,3.16-7.04,7.05-7.04M114.4,125.79c-6.28,0-11.39-5.11-11.39-11.39s5.11-11.38,11.39-11.38,11.39,5.11,11.39,11.38-5.11,11.39-11.39,11.39"/>
  <path class="cls-1" d="M220.13,220.13h0c.74-.74,1.31-1.65,1.66-2.65.26-.73.41-1.52.41-2.34v-17.46h0s0,0,0,0h-4.21c-3.88,0-7.05,3.16-7.05,7.04v6.21h-.02s0,.01,0,.01h-5.54c-3.89,0-7.04,3.16-7.04,7.04v4.18s0,.02,0,.02h0s.03.01.03.01h16.76c.83,0,1.63-.15,2.37-.42.99-.36,1.88-.92,2.61-1.65h0Z"/>
</svg>