<?xml version="1.0" encoding="UTF-8"?>
<svg id="Layer_1" data-name="Layer 1" xmlns="http://www.w3.org/2000/svg" viewBox="0 0 300 300">
  <defs>
    <style>
      .cls-1 {
        fill: #b76749;
      }

      .cls-2 {
        fill: #22382c;
      }
    </style>
  </defs>
  <path class="cls-2" d="M211.5,109.98c-10.7-24.04-35.17-39.97-61.49-39.95h-.02c-26.32-.02-50.79,15.91-61.49,39.95-6.1,13.71-8.76,31.44-3.93,45.92,2.36,7.09,6.46,15.11,10.95,21.03,1.34,1.76,16.66,19.58,17.17,19.07h0s31.62,31.63,31.62,31.63c1.57,1.57,3.63,2.35,5.69,2.35h.02c2.06,0,4.12-.78,5.69-2.35l31.62-31.62h-.02s.02,0,.03,0c.91,0,15.82-17.34,17.14-19.08,4.49-5.92,8.6-13.94,10.96-21.03,4.81-14.48,2.16-32.21-3.94-45.92M185.42,135.61c0,19.56-15.86,35.42-35.42,35.42s-35.42-15.86-35.42-35.42,15.86-35.42,35.42-35.42,35.42,15.86,35.42,35.42"/>
  <path class="cls-1" d="M187.32,196.02l-31.62,31.62c-1.57,1.56-3.63,2.35-5.69,2.35h-.02c-2.06,0-4.12-.79-5.69-2.35l-31.62-31.62v-.02s3.4-3.39,3.4-3.39c3.14-3.14,8.24-3.14,11.37,0l22.53,22.53h.02s0,0,0,0l22.53-22.53c3.14-3.14,8.24-3.14,11.38,0l3.4,3.4Z"/>
</svg>