<?xml version="1.0" encoding="UTF-8"?>
<svg id="Layer_1" data-name="Layer 1" xmlns="http://www.w3.org/2000/svg" viewBox="0 0 300 300">
  <defs>
    <style>
      .cls-1 {
        fill: #b76749;
      }

      .cls-2 {
        fill: #22382c;
      }
    </style>
  </defs>
  <path class="cls-2" d="M209.37,106.94h-118.75c-4.6,0-8.33,3.74-8.33,8.34v69.44c0,4.6,3.74,8.34,8.33,8.34h118.75c4.6,0,8.33-3.74,8.33-8.34v-69.44c0-4.6-3.74-8.34-8.33-8.34M212.7,115.28v69.44c0,.22-.02.43-.06.64l-43.55-33,43.6-37.34c0,.09.02.18.02.27M87.3,184.72v-69.44c0-.09,0-.18.01-.27l43.6,37.34-43.55,33c-.04-.21-.06-.42-.06-.64M163.27,150.51l-11.16,9.57c-1.22,1.05-3,1.05-4.22,0l-11.16-9.57-45.02-38.55h116.59l-45.02,38.55ZM134.94,155.8l9.58,8.21c1.59,1.36,3.53,2.04,5.48,2.04s3.89-.68,5.48-2.04l9.58-8.21,42.55,32.25h-115.22l42.55-32.25Z"/>
  <path class="cls-1" d="M181.75,141.3l-26.9,26.9c-1.33,1.33-3.09,2-4.84,2h-.01c-1.75,0-3.51-.67-4.84-2l-26.9-26.9v-.02s2.9-2.88,2.9-2.88c2.67-2.67,7-2.67,9.67,0l19.17,19.17h.01s0,0,0,0l19.17-19.17c2.67-2.67,7.01-2.67,9.68,0l2.9,2.9Z"/>
</svg>