<?xml version="1.0" encoding="UTF-8"?>
<svg id="Layer_1" data-name="Layer 1" xmlns="http://www.w3.org/2000/svg" viewBox="0 0 300 300">
  <defs>
    <style>
      .cls-1 {
        fill: #b76749;
      }

      .cls-2 {
        fill: #22382c;
      }
    </style>
  </defs>
  <path class="cls-2" d="M196.37,142.26h-16.24c-1.08,0-1.95-.87-1.95-1.95s.87-1.95,1.95-1.95h16.24c1.08,0,1.95.87,1.95,1.95s-.87,1.95-1.95,1.95"/>
  <path class="cls-2" d="M196.37,168.51h-16.24c-1.08,0-1.95-.87-1.95-1.95s.87-1.95,1.95-1.95h16.24c1.08,0,1.95.87,1.95,1.95s-.87,1.95-1.95,1.95"/>
  <path class="cls-2" d="M73.88,116.61v101.4h11.71v-89.67l11.23-.09v12.69c0,6.03,4.9,10.94,10.93,10.94h10.72v8.63h-2.52c-10.55,0-19.14,8.58-19.14,19.14v2.73h21.66v5.42c0,1.24.88,2.28,2.04,2.53v7.3l-24.11,10.95-.06,9.42h2.03s2.03.02,2.03.02v-1.6s.04-5.22.04-5.22l16.05-7.29,4.02-1.82v15.92h5.74v-15.98l4.15,1.88,16.05,7.29.03,5.22v1.6s2.04-.01,2.04-.01h2.03s-.06-9.43-.06-9.43l-24.24-11.01v-7.25c1.17-.26,2.04-1.29,2.04-2.53v-5.42h21.91v-2.73c0-10.55-8.59-19.14-19.14-19.14h-2.77v-8.63h9.83c6.03,0,10.94-4.91,10.94-10.94v-12.71h8.54v54.2h56.79v35.58h11.71v-89.68l-16.91-11.72h-60.12v-8.49c0-14.41-11.72-26.13-26.13-26.13-6.98,0-13.54,2.72-18.47,7.65-4.93,4.93-7.65,11.5-7.65,18.48v8.49h-22.94ZM161.52,155.36h52.89v23.16h-52.89v-23.16ZM161.52,128.34h52.89v23.12h-52.89v-23.12ZM100.89,108.11c0-5.9,2.29-11.44,6.46-15.61,4.17-4.17,9.71-6.46,15.6-6.46,12.17,0,22.07,9.9,22.07,22.07v32.82c0,3.79-3.09,6.88-6.88,6.88h-30.38c-3.79,0-6.87-3.08-6.87-6.88v-32.82Z"/>
  <path class="cls-1" d="M178.12,116.62h40.66c2.02,0,3.84.82,5.17,2.15h0s0,0,0,0c1.33,1.33,2.15,3.16,2.15,5.18v40.66h-4.38c-4.03,0-7.32-3.28-7.32-7.31v-28.98h-.02s0-.01,0-.01h-28.97c-4.03,0-7.31-3.28-7.31-7.31v-4.36s0-.02,0-.02Z"/>
</svg>