<?xml version="1.0" encoding="UTF-8"?>
<svg id="Layer_1" data-name="Layer 1" xmlns="http://www.w3.org/2000/svg" viewBox="0 0 300 300">
  <defs>
    <style>
      .cls-1 {
        fill: #b76749;
      }

      .cls-2 {
        fill: #22382c;
      }
    </style>
  </defs>
  <path class="cls-2" d="M201.5,196.85c-3.09,0-4.54-1.44-6.54-3.45-2.29-2.29-5.15-5.14-10.65-5.14s-8.35,2.85-10.65,5.15c-2,1.99-3.44,3.44-6.52,3.44s-4.52-1.44-6.51-3.44c-2.29-2.29-5.15-5.15-10.65-5.15s-8.35,2.85-10.64,5.15c-1.99,2-3.44,3.44-6.53,3.44s-4.53-1.44-6.53-3.44c-2.29-2.29-5.14-5.15-10.63-5.15s-8.36,2.85-10.65,5.15c-1.99,2-3.44,3.44-6.51,3.44s-4.53-1.44-6.53-3.44c-2.21-2.21-4.95-4.95-10.09-5.13-.18-.01-.36-.01-.55-.01v5.83h.13c.06,0,.11,0,.17,0,2.87.09,4.28,1.49,6.22,3.43,2.29,2.29,5.15,5.15,10.65,5.15s8.34-2.85,10.64-5.15c2-2,3.44-3.44,6.53-3.44s4.52,1.44,6.51,3.44c2.29,2.29,5.15,5.15,10.65,5.15s8.36-2.86,10.65-5.15c1.99-2,3.44-3.44,6.51-3.44s4.53,1.44,6.53,3.44c2.29,2.29,5.14,5.15,10.64,5.15s8.35-2.85,10.64-5.15c2-1.99,3.44-3.44,6.53-3.44s4.53,1.44,6.53,3.44c2.29,2.29,5.15,5.15,10.66,5.15s8.35-2.85,10.65-5.15c2-2,3.45-3.44,6.54-3.44v-5.83c-5.51,0-8.36,2.85-10.66,5.15-2,2-3.44,3.44-6.53,3.44"/>
  <path class="cls-2" d="M218.13,173.91c-5.14.19-7.89,2.93-10.1,5.14-2,1.99-3.44,3.44-6.53,3.44s-4.54-1.44-6.54-3.45c-.81-.81-1.65-1.64-2.65-2.43-2.39-1.85-4.93-2.71-7.99-2.71-2.74,0-5.12.71-7.27,2.19-1.32.91-2.36,1.95-3.37,2.95-1.68,1.69-3.02,3.02-5.28,3.36-.42.06-.83.09-1.25.09-3.09,0-4.53-1.44-6.53-3.44-2.29-2.29-5.14-5.15-10.64-5.15s-8.36,2.86-10.65,5.15c-1.99,1.99-3.44,3.44-6.51,3.44s-4.53-1.44-6.53-3.44c-2.11-2.11-4.73-4.73-9.5-5.11-.37-.03-.75-.04-1.15-.04-5.49,0-8.34,2.85-10.64,5.15-2,2-3.44,3.44-6.53,3.44s-4.52-1.44-6.51-3.44c-2.29-2.29-5.15-5.15-10.65-5.15v5.83c3.09,0,4.53,1.44,6.53,3.44,2.29,2.29,5.15,5.15,10.64,5.15s8.36-2.85,10.65-5.15c1.99-2,3.44-3.44,6.51-3.44.25,0,.48,0,.7.03,2.61.2,3.96,1.55,5.82,3.41,2.29,2.29,5.15,5.15,10.65,5.15s8.34-2.85,10.64-5.15c2-2,3.44-3.44,6.53-3.44s4.52,1.44,6.51,3.44c2.29,2.29,5.15,5.15,10.65,5.15.72,0,1.41-.05,2.12-.16,4.16-.62,6.58-3.05,8.53-5,.86-.86,1.67-1.67,2.54-2.27,1.18-.81,2.41-1.17,3.98-1.17,1.78,0,3.06.43,4.42,1.49.71.55,1.38,1.23,2.1,1.94,2.3,2.3,5.16,5.16,10.67,5.16s8.35-2.85,10.65-5.14c1.94-1.94,3.35-3.35,6.23-3.44.06,0,.09,0,.15,0h.16v-5.83c-.19,0-.38,0-.56.02"/>
  <path class="cls-2" d="M141.44,172.38h5.83v-10.89h39.36v10.89h5.83v-39.54h26.24v-8.74h-26.24v-11.84c0-5.03,3.13-9.11,6.97-9.11,1.75,0,3.42.87,4.73,2.46,1.44,1.76,2.24,4.12,2.24,6.66v9.02h5.83v-9.02c0-3.88-1.27-7.56-3.57-10.36-2.39-2.91-5.75-4.58-9.22-4.58-7.06,0-12.8,6.7-12.8,14.94v11.84h-39.36v-11.84c0-5.03,3.13-9.11,6.97-9.11,1.75,0,3.42.87,4.72,2.46,1.45,1.76,2.24,4.12,2.24,6.66v9.02h5.83v-9.02c0-3.88-1.27-7.56-3.57-10.36-2.39-2.91-5.75-4.58-9.22-4.58-7.06,0-12.8,6.7-12.8,14.94v11.84h-52.01l-8.12,8.74h60.13v39.54ZM147.27,147h39.36v8.67h-39.36v-8.67ZM186.62,141.17h-39.36v-8.32h39.36v8.32Z"/>
  <path class="cls-1" d="M117.17,124.1h-30.39c-1.51,0-2.87.62-3.87,1.6h0s0,0,0,0c-.99.99-1.6,2.36-1.6,3.87v30.39h3.27c3.02,0,5.47-2.45,5.47-5.47v-21.65h.01s0-.01,0-.01h21.65c3.01,0,5.46-2.45,5.46-5.46v-3.26s0-.01,0-.01Z"/>
</svg>