<?xml version="1.0" encoding="UTF-8"?>
<svg id="Layer_1" data-name="Layer 1" xmlns="http://www.w3.org/2000/svg" viewBox="0 0 300 300">
  <defs>
    <style>
      .cls-1 {
        fill: #b76749;
      }

      .cls-2 {
        fill: #22382c;
      }
    </style>
  </defs>
  <path class="cls-2" d="M205.44,109.04c-4.92-4.92-12.92-4.92-17.83,0l-26.76,26.76c-.09.08-.18.15-.27.24l-35.33,35.33-10.83-10.83h0l5.82,5.82-7.84-7.84c-4.92-4.92-12.92-4.92-17.83,0l-5.33,5.33h0s23.66,23.66,23.66,23.66l3.45,3.45c4.92,4.92,12.92,4.92,17.83,0l34.78-34.78v.02s41.82-41.81,41.82-41.81l-5.33-5.33Z"/>
  <path class="cls-1" d="M116.33,190.96c2.46,2.46,5.69,3.69,8.91,3.69s6.46-1.23,8.91-3.69l27.1-27.1-5.33-5.33c-4.91-4.91-12.91-4.91-17.83,0l-7.84,7.85,5.82-5.82h0s-10.83,10.83-10.83,10.83l-10.83-10.83h0s5.82,5.82,5.82,5.82l-7.85-7.85c-4.91-4.91-12.91-4.91-17.83,0l-5.33,5.33,27.1,27.1Z"/>
</svg>